<svg width="170" height="8" viewBox="0 0 170 8" fill="none" xmlns="http://www.w3.org/2000/svg">
<path d="M1.99432 0.997156C1.99433 0.446439 1.54788 -1.11735e-05 0.997163 -1.12697e-05C0.446446 -1.1366e-05 1.27677e-06 0.446439 1.18048e-06 0.997156C1.08419e-06 1.54787 0.446446 1.99432 0.997163 1.99432C1.54788 1.99432 1.99432 1.54787 1.99432 0.997156Z" fill="url(#paint0_linear)"/>
<path d="M7.77667 0.997158C7.77667 0.44644 7.33023 -1.01624e-05 6.77951 -1.02587e-05C6.22879 -1.0355e-05 5.78235 0.44644 5.78235 0.997157C5.78235 1.54787 6.22879 1.99432 6.77951 1.99432C7.33023 1.99433 7.77667 1.54787 7.77667 0.997158Z" fill="url(#paint1_linear)"/>
<path d="M13.559 0.997159C13.559 0.446441 13.1126 -9.15142e-06 12.5619 -9.24771e-06C12.0111 -9.344e-06 11.5647 0.446441 11.5647 0.997158C11.5647 1.54788 12.0111 1.99433 12.5619 1.99433C13.1126 1.99433 13.559 1.54788 13.559 0.997159Z" fill="url(#paint2_linear)"/>
<path d="M19.3414 0.99716C19.3414 0.446442 18.8949 -8.1404e-06 18.3442 -8.23669e-06C17.7935 -8.33298e-06 17.347 0.446442 17.347 0.997159C17.347 1.54788 17.7935 1.99433 18.3442 1.99433C18.8949 1.99433 19.3414 1.54788 19.3414 0.99716Z" fill="url(#paint3_linear)"/>
<path d="M25.1237 0.997161C25.1237 0.446443 24.6773 -7.12938e-06 24.1266 -7.22567e-06C23.5758 -7.32196e-06 23.1294 0.446443 23.1294 0.99716C23.1294 1.54788 23.5758 1.99433 24.1266 1.99433C24.6773 1.99433 25.1237 1.54788 25.1237 0.997161Z" fill="url(#paint4_linear)"/>
<path d="M30.9061 0.997162C30.9061 0.446444 30.4596 -6.11836e-06 29.9089 -6.21465e-06C29.3582 -6.31094e-06 28.9117 0.446444 28.9117 0.997161C28.9117 1.54788 29.3582 1.99433 29.9089 1.99433C30.4596 1.99433 30.9061 1.54788 30.9061 0.997162Z" fill="url(#paint5_linear)"/>
<path d="M36.6884 0.997163C36.6884 0.446445 36.242 -5.10734e-06 35.6913 -5.20363e-06C35.1405 -5.29993e-06 34.6941 0.446445 34.6941 0.997162C34.6941 1.54788 35.1405 1.99433 35.6913 1.99433C36.242 1.99433 36.6884 1.54788 36.6884 0.997163Z" fill="url(#paint6_linear)"/>
<path d="M42.4708 0.997164C42.4708 0.446446 42.0243 -4.09633e-06 41.4736 -4.19262e-06C40.9229 -4.28891e-06 40.4764 0.446446 40.4764 0.997163C40.4764 1.54788 40.9229 1.99433 41.4736 1.99433C42.0243 1.99433 42.4708 1.54788 42.4708 0.997164Z" fill="url(#paint7_linear)"/>
<path d="M48.2531 0.997165C48.2531 0.446447 47.8067 -3.08531e-06 47.256 -3.1816e-06C46.7052 -3.27789e-06 46.2588 0.446447 46.2588 0.997164C46.2588 1.54788 46.7052 1.99433 47.256 1.99433C47.8067 1.99433 48.2531 1.54788 48.2531 0.997165Z" fill="url(#paint8_linear)"/>
<path d="M54.0355 0.997166C54.0355 0.446448 53.589 -2.07429e-06 53.0383 -2.17058e-06C52.4876 -2.26687e-06 52.0411 0.446448 52.0411 0.997165C52.0411 1.54788 52.4876 1.99433 53.0383 1.99433C53.589 1.99433 54.0355 1.54788 54.0355 0.997166Z" fill="url(#paint9_linear)"/>
<path d="M59.8178 0.997167C59.8178 0.446449 59.3714 -1.06327e-06 58.8206 -1.15956e-06C58.2699 -1.25585e-06 57.8235 0.446449 57.8235 0.997166C57.8235 1.54788 58.2699 1.99433 58.8206 1.99433C59.3714 1.99433 59.8178 1.54788 59.8178 0.997167Z" fill="url(#paint10_linear)"/>
<path d="M65.6002 0.997168C65.6002 0.44645 65.1537 -5.22541e-08 64.603 -1.48545e-07C64.0523 -2.44836e-07 63.6058 0.44645 63.6058 0.997167C63.6058 1.54788 64.0523 1.99433 64.603 1.99434C65.1537 1.99434 65.6002 1.54788 65.6002 0.997168Z" fill="url(#paint11_linear)"/>
<path d="M71.3825 0.997169C71.3825 0.446451 70.9361 9.58764e-07 70.3853 8.62473e-07C69.8346 7.66182e-07 69.3882 0.446451 69.3882 0.997168C69.3882 1.54789 69.8346 1.99434 70.3853 1.99434C70.9361 1.99434 71.3825 1.54789 71.3825 0.997169Z" fill="url(#paint12_linear)"/>
<path d="M77.1649 0.99717C77.1649 0.446452 76.7184 1.96978e-06 76.1677 1.87349e-06C75.617 1.7772e-06 75.1705 0.446452 75.1705 0.997169C75.1705 1.54789 75.617 1.99434 76.1677 1.99434C76.7184 1.99434 77.1649 1.54789 77.1649 0.99717Z" fill="url(#paint13_linear)"/>
<path d="M82.9472 0.997171C82.9472 0.446453 82.5008 2.9808e-06 81.95 2.88451e-06C81.3993 2.78822e-06 80.9529 0.446453 80.9529 0.99717C80.9529 1.54789 81.3993 1.99434 81.95 1.99434C82.5008 1.99434 82.9472 1.54789 82.9472 0.997171Z" fill="url(#paint14_linear)"/>
<path d="M88.7296 0.997172C88.7296 0.446454 88.2831 3.99182e-06 87.7324 3.89553e-06C87.1817 3.79924e-06 86.7352 0.446454 86.7352 0.997171C86.7352 1.54789 87.1817 1.99434 87.7324 1.99434C88.2831 1.99434 88.7296 1.54789 88.7296 0.997172Z" fill="url(#paint15_linear)"/>
<path d="M94.5119 0.997173C94.5119 0.446455 94.0655 5.00284e-06 93.5147 4.90654e-06C92.964 4.81025e-06 92.5176 0.446455 92.5176 0.997172C92.5176 1.54789 92.964 1.99434 93.5147 1.99434C94.0655 1.99434 94.5119 1.54789 94.5119 0.997173Z" fill="url(#paint16_linear)"/>
<path d="M100.294 0.997174C100.294 0.446456 99.8478 6.01385e-06 99.2971 5.91756e-06C98.7464 5.82127e-06 98.2999 0.446456 98.2999 0.997173C98.2999 1.54789 98.7464 1.99434 99.2971 1.99434C99.8478 1.99434 100.294 1.54789 100.294 0.997174Z" fill="url(#paint17_linear)"/>
<path d="M106.077 0.997175C106.077 0.446457 105.63 7.02487e-06 105.079 6.92858e-06C104.529 6.83229e-06 104.082 0.446457 104.082 0.997174C104.082 1.54789 104.529 1.99434 105.079 1.99434C105.63 1.99434 106.077 1.54789 106.077 0.997175Z" fill="url(#paint18_linear)"/>
<path d="M111.859 0.997176C111.859 0.446458 111.413 8.03589e-06 110.862 7.9396e-06C110.311 7.84331e-06 109.865 0.446458 109.865 0.997175C109.865 1.54789 110.311 1.99434 110.862 1.99434C111.413 1.99434 111.859 1.54789 111.859 0.997176Z" fill="url(#paint19_linear)"/>
<path d="M117.641 0.997177C117.641 0.446459 117.195 9.04691e-06 116.644 8.95062e-06C116.093 8.85433e-06 115.647 0.446459 115.647 0.997176C115.647 1.54789 116.093 1.99434 116.644 1.99434C117.195 1.99434 117.641 1.54789 117.641 0.997177Z" fill="url(#paint20_linear)"/>
<path d="M123.424 0.997178C123.424 0.44646 122.977 1.00579e-05 122.426 9.96163e-06C121.876 9.86534e-06 121.429 0.44646 121.429 0.997177C121.429 1.54789 121.876 1.99435 122.426 1.99435C122.977 1.99435 123.424 1.5479 123.424 0.997178Z" fill="url(#paint21_linear)"/>
<path d="M129.206 0.997179C129.206 0.446461 128.76 1.10689e-05 128.209 1.09727e-05C127.658 1.08764e-05 127.212 0.446461 127.212 0.997178C127.212 1.5479 127.658 1.99435 128.209 1.99435C128.76 1.99435 129.206 1.5479 129.206 0.997179Z" fill="url(#paint22_linear)"/>
<path d="M134.988 0.99718C134.988 0.446462 134.542 1.208e-05 133.991 1.19837e-05C133.44 1.18874e-05 132.994 0.446462 132.994 0.997179C132.994 1.5479 133.44 1.99435 133.991 1.99435C134.542 1.99435 134.988 1.5479 134.988 0.99718Z" fill="url(#paint23_linear)"/>
<path d="M140.771 0.997181C140.771 0.446463 140.324 1.3091e-05 139.774 1.29947e-05C139.223 1.28984e-05 138.776 0.446463 138.776 0.99718C138.776 1.5479 139.223 1.99435 139.774 1.99435C140.324 1.99435 140.771 1.5479 140.771 0.997181Z" fill="url(#paint24_linear)"/>
<path d="M146.553 0.997182C146.553 0.446464 146.107 1.4102e-05 145.556 1.40057e-05C145.005 1.39094e-05 144.559 0.446464 144.559 0.997181C144.559 1.5479 145.005 1.99435 145.556 1.99435C146.107 1.99435 146.553 1.5479 146.553 0.997182Z" fill="url(#paint25_linear)"/>
<path d="M152.335 0.997183C152.335 0.446465 151.889 1.5113e-05 151.338 1.50167e-05C150.788 1.49204e-05 150.341 0.446465 150.341 0.997182C150.341 1.5479 150.788 1.99435 151.338 1.99435C151.889 1.99435 152.335 1.5479 152.335 0.997183Z" fill="url(#paint26_linear)"/>
<path d="M158.118 0.997184C158.118 0.446466 157.671 1.6124e-05 157.121 1.60277e-05C156.57 1.59315e-05 156.123 0.446466 156.123 0.997183C156.123 1.5479 156.57 1.99435 157.121 1.99435C157.671 1.99435 158.118 1.5479 158.118 0.997184Z" fill="url(#paint27_linear)"/>
<path d="M163.9 0.997185C163.9 0.446467 163.454 1.71351e-05 162.903 1.70388e-05C162.352 1.69425e-05 161.906 0.446467 161.906 0.997184C161.906 1.5479 162.352 1.99435 162.903 1.99435C163.454 1.99435 163.9 1.5479 163.9 0.997185Z" fill="url(#paint28_linear)"/>
<path d="M169.682 0.997186C169.682 0.446468 169.236 1.81461e-05 168.685 1.80498e-05C168.135 1.79535e-05 167.688 0.446468 167.688 0.997185C167.688 1.5479 168.135 1.99435 168.685 1.99435C169.236 1.99435 169.682 1.5479 169.682 0.997186Z" fill="url(#paint29_linear)"/>
<path d="M1.99432 6.75155C1.99432 6.20083 1.54788 5.75438 0.997162 5.75438C0.446445 5.75438 2.70641e-07 6.20083 1.7435e-07 6.75155C7.80599e-08 7.30227 0.446445 7.74872 0.997162 7.74872C1.54788 7.74872 1.99432 7.30227 1.99432 6.75155Z" fill="url(#paint30_linear)"/>
<path d="M7.77667 6.75155C7.77667 6.20083 7.33023 5.75438 6.77951 5.75438C6.22879 5.75438 5.78235 6.20083 5.78235 6.75155C5.78235 7.30227 6.22879 7.74872 6.77951 7.74872C7.33023 7.74872 7.77667 7.30227 7.77667 6.75155Z" fill="url(#paint31_linear)"/>
<path d="M13.559 6.75155C13.559 6.20084 13.1126 5.75439 12.5619 5.75439C12.0111 5.75439 11.5647 6.20084 11.5647 6.75155C11.5647 7.30227 12.0111 7.74872 12.5619 7.74872C13.1126 7.74872 13.559 7.30227 13.559 6.75155Z" fill="url(#paint32_linear)"/>
<path d="M19.3414 6.75155C19.3414 6.20084 18.8949 5.75439 18.3442 5.75439C17.7935 5.75439 17.347 6.20084 17.347 6.75155C17.347 7.30227 17.7935 7.74872 18.3442 7.74872C18.8949 7.74872 19.3414 7.30227 19.3414 6.75155Z" fill="url(#paint33_linear)"/>
<path d="M25.1237 6.75156C25.1237 6.20084 24.6773 5.75439 24.1266 5.75439C23.5758 5.75439 23.1294 6.20084 23.1294 6.75155C23.1294 7.30227 23.5758 7.74872 24.1266 7.74872C24.6773 7.74872 25.1237 7.30227 25.1237 6.75156Z" fill="url(#paint34_linear)"/>
<path d="M30.9061 6.75156C30.9061 6.20084 30.4596 5.75439 29.9089 5.75439C29.3582 5.75439 28.9117 6.20084 28.9117 6.75156C28.9117 7.30227 29.3582 7.74872 29.9089 7.74872C30.4596 7.74872 30.9061 7.30227 30.9061 6.75156Z" fill="url(#paint35_linear)"/>
<path d="M36.6884 6.75156C36.6884 6.20084 36.242 5.75439 35.6913 5.75439C35.1405 5.75439 34.6941 6.20084 34.6941 6.75156C34.6941 7.30227 35.1405 7.74872 35.6913 7.74872C36.242 7.74872 36.6884 7.30227 36.6884 6.75156Z" fill="url(#paint36_linear)"/>
<path d="M42.4708 6.75156C42.4708 6.20084 42.0243 5.75439 41.4736 5.75439C40.9229 5.75439 40.4764 6.20084 40.4764 6.75156C40.4764 7.30228 40.9229 7.74873 41.4736 7.74873C42.0243 7.74873 42.4708 7.30228 42.4708 6.75156Z" fill="url(#paint37_linear)"/>
<path d="M48.2531 6.75156C48.2531 6.20084 47.8067 5.75439 47.256 5.75439C46.7052 5.75439 46.2588 6.20084 46.2588 6.75156C46.2588 7.30228 46.7052 7.74873 47.256 7.74873C47.8067 7.74873 48.2531 7.30228 48.2531 6.75156Z" fill="url(#paint38_linear)"/>
<path d="M54.0355 6.75156C54.0355 6.20084 53.589 5.75439 53.0383 5.75439C52.4876 5.75439 52.0411 6.20084 52.0411 6.75156C52.0411 7.30228 52.4876 7.74873 53.0383 7.74873C53.589 7.74873 54.0355 7.30228 54.0355 6.75156Z" fill="url(#paint39_linear)"/>
<path d="M59.8178 6.75156C59.8178 6.20084 59.3714 5.75439 58.8206 5.75439C58.2699 5.75439 57.8235 6.20084 57.8235 6.75156C57.8235 7.30228 58.2699 7.74873 58.8206 7.74873C59.3714 7.74873 59.8178 7.30228 59.8178 6.75156Z" fill="url(#paint40_linear)"/>
<path d="M65.6002 6.75156C65.6002 6.20084 65.1537 5.75439 64.603 5.75439C64.0523 5.75439 63.6058 6.20084 63.6058 6.75156C63.6058 7.30228 64.0523 7.74873 64.603 7.74873C65.1537 7.74873 65.6002 7.30228 65.6002 6.75156Z" fill="url(#paint41_linear)"/>
<path d="M71.3825 6.75156C71.3825 6.20085 70.9361 5.7544 70.3853 5.7544C69.8346 5.7544 69.3882 6.20085 69.3882 6.75156C69.3882 7.30228 69.8346 7.74873 70.3853 7.74873C70.9361 7.74873 71.3825 7.30228 71.3825 6.75156Z" fill="url(#paint42_linear)"/>
<path d="M77.1649 6.75156C77.1649 6.20085 76.7184 5.7544 76.1677 5.7544C75.617 5.7544 75.1705 6.20085 75.1705 6.75156C75.1705 7.30228 75.617 7.74873 76.1677 7.74873C76.7184 7.74873 77.1649 7.30228 77.1649 6.75156Z" fill="url(#paint43_linear)"/>
<path d="M82.9472 6.75157C82.9472 6.20085 82.5008 5.7544 81.95 5.7544C81.3993 5.7544 80.9529 6.20085 80.9529 6.75156C80.9529 7.30228 81.3993 7.74873 81.95 7.74873C82.5008 7.74873 82.9472 7.30228 82.9472 6.75157Z" fill="url(#paint44_linear)"/>
<path d="M88.7296 6.75157C88.7296 6.20085 88.2831 5.7544 87.7324 5.7544C87.1817 5.7544 86.7352 6.20085 86.7352 6.75157C86.7352 7.30228 87.1817 7.74873 87.7324 7.74873C88.2831 7.74873 88.7296 7.30228 88.7296 6.75157Z" fill="url(#paint45_linear)"/>
<path d="M94.5119 6.75157C94.5119 6.20085 94.0655 5.7544 93.5147 5.7544C92.964 5.7544 92.5176 6.20085 92.5176 6.75157C92.5176 7.30228 92.964 7.74873 93.5147 7.74873C94.0655 7.74873 94.5119 7.30228 94.5119 6.75157Z" fill="url(#paint46_linear)"/>
<path d="M100.294 6.75157C100.294 6.20085 99.8478 5.7544 99.2971 5.7544C98.7464 5.7544 98.2999 6.20085 98.2999 6.75157C98.2999 7.30229 98.7464 7.74874 99.2971 7.74874C99.8478 7.74874 100.294 7.30229 100.294 6.75157Z" fill="url(#paint47_linear)"/>
<path d="M106.077 6.75157C106.077 6.20085 105.63 5.7544 105.079 5.7544C104.529 5.7544 104.082 6.20085 104.082 6.75157C104.082 7.30229 104.529 7.74874 105.079 7.74874C105.63 7.74874 106.077 7.30229 106.077 6.75157Z" fill="url(#paint48_linear)"/>
<path d="M111.859 6.75157C111.859 6.20085 111.413 5.7544 110.862 5.7544C110.311 5.7544 109.865 6.20085 109.865 6.75157C109.865 7.30229 110.311 7.74874 110.862 7.74874C111.413 7.74874 111.859 7.30229 111.859 6.75157Z" fill="url(#paint49_linear)"/>
<path d="M117.641 6.75157C117.641 6.20085 117.195 5.7544 116.644 5.7544C116.093 5.7544 115.647 6.20085 115.647 6.75157C115.647 7.30229 116.093 7.74874 116.644 7.74874C117.195 7.74874 117.641 7.30229 117.641 6.75157Z" fill="url(#paint50_linear)"/>
<path d="M123.424 6.75157C123.424 6.20086 122.977 5.7544 122.426 5.7544C121.876 5.7544 121.429 6.20085 121.429 6.75157C121.429 7.30229 121.876 7.74874 122.426 7.74874C122.977 7.74874 123.424 7.30229 123.424 6.75157Z" fill="url(#paint51_linear)"/>
<path d="M129.206 6.75157C129.206 6.20086 128.76 5.75441 128.209 5.75441C127.658 5.75441 127.212 6.20086 127.212 6.75157C127.212 7.30229 127.658 7.74874 128.209 7.74874C128.76 7.74874 129.206 7.30229 129.206 6.75157Z" fill="url(#paint52_linear)"/>
<path d="M134.988 6.75157C134.988 6.20086 134.542 5.75441 133.991 5.75441C133.44 5.75441 132.994 6.20086 132.994 6.75157C132.994 7.30229 133.44 7.74874 133.991 7.74874C134.542 7.74874 134.988 7.30229 134.988 6.75157Z" fill="url(#paint53_linear)"/>
<path d="M140.771 6.75158C140.771 6.20086 140.324 5.75441 139.774 5.75441C139.223 5.75441 138.776 6.20086 138.776 6.75157C138.776 7.30229 139.223 7.74874 139.774 7.74874C140.324 7.74874 140.771 7.30229 140.771 6.75158Z" fill="url(#paint54_linear)"/>
<path d="M146.553 6.75158C146.553 6.20086 146.107 5.75441 145.556 5.75441C145.005 5.75441 144.559 6.20086 144.559 6.75158C144.559 7.30229 145.005 7.74874 145.556 7.74874C146.107 7.74874 146.553 7.30229 146.553 6.75158Z" fill="url(#paint55_linear)"/>
<path d="M152.335 6.75158C152.335 6.20086 151.889 5.75441 151.338 5.75441C150.788 5.75441 150.341 6.20086 150.341 6.75158C150.341 7.30229 150.788 7.74874 151.338 7.74874C151.889 7.74874 152.335 7.30229 152.335 6.75158Z" fill="url(#paint56_linear)"/>
<path d="M158.118 6.75158C158.118 6.20086 157.671 5.75441 157.121 5.75441C156.57 5.75441 156.123 6.20086 156.123 6.75158C156.123 7.3023 156.57 7.74875 157.121 7.74875C157.671 7.74875 158.118 7.3023 158.118 6.75158Z" fill="url(#paint57_linear)"/>
<path d="M163.9 6.75158C163.9 6.20086 163.454 5.75441 162.903 5.75441C162.352 5.75441 161.906 6.20086 161.906 6.75158C161.906 7.3023 162.352 7.74875 162.903 7.74875C163.454 7.74875 163.9 7.3023 163.9 6.75158Z" fill="url(#paint58_linear)"/>
<path d="M169.682 6.75158C169.682 6.20086 169.236 5.75441 168.685 5.75441C168.135 5.75441 167.688 6.20086 167.688 6.75158C167.688 7.3023 168.135 7.74875 168.685 7.74875C169.236 7.74875 169.682 7.3023 169.682 6.75158Z" fill="url(#paint59_linear)"/>
<defs>
<linearGradient id="paint0_linear" x1="152.108" y1="6.9462" x2="151.13" y2="-6.92866" gradientUnits="userSpaceOnUse">
<stop stop-color="#232323"/>
<stop offset="1" stop-color="#323232"/>
</linearGradient>
<linearGradient id="paint1_linear" x1="152.108" y1="6.9462" x2="151.13" y2="-6.92866" gradientUnits="userSpaceOnUse">
<stop stop-color="#232323"/>
<stop offset="1" stop-color="#323232"/>
</linearGradient>
<linearGradient id="paint2_linear" x1="152.108" y1="6.9462" x2="151.13" y2="-6.92866" gradientUnits="userSpaceOnUse">
<stop stop-color="#232323"/>
<stop offset="1" stop-color="#323232"/>
</linearGradient>
<linearGradient id="paint3_linear" x1="152.108" y1="6.9462" x2="151.13" y2="-6.92866" gradientUnits="userSpaceOnUse">
<stop stop-color="#232323"/>
<stop offset="1" stop-color="#323232"/>
</linearGradient>
<linearGradient id="paint4_linear" x1="152.108" y1="6.9462" x2="151.13" y2="-6.92866" gradientUnits="userSpaceOnUse">
<stop stop-color="#232323"/>
<stop offset="1" stop-color="#323232"/>
</linearGradient>
<linearGradient id="paint5_linear" x1="152.108" y1="6.9462" x2="151.13" y2="-6.92866" gradientUnits="userSpaceOnUse">
<stop stop-color="#232323"/>
<stop offset="1" stop-color="#323232"/>
</linearGradient>
<linearGradient id="paint6_linear" x1="152.108" y1="6.9462" x2="151.13" y2="-6.92866" gradientUnits="userSpaceOnUse">
<stop stop-color="#232323"/>
<stop offset="1" stop-color="#323232"/>
</linearGradient>
<linearGradient id="paint7_linear" x1="152.108" y1="6.9462" x2="151.13" y2="-6.92866" gradientUnits="userSpaceOnUse">
<stop stop-color="#232323"/>
<stop offset="1" stop-color="#323232"/>
</linearGradient>
<linearGradient id="paint8_linear" x1="152.108" y1="6.9462" x2="151.13" y2="-6.92866" gradientUnits="userSpaceOnUse">
<stop stop-color="#232323"/>
<stop offset="1" stop-color="#323232"/>
</linearGradient>
<linearGradient id="paint9_linear" x1="152.108" y1="6.9462" x2="151.13" y2="-6.92866" gradientUnits="userSpaceOnUse">
<stop stop-color="#232323"/>
<stop offset="1" stop-color="#323232"/>
</linearGradient>
<linearGradient id="paint10_linear" x1="152.108" y1="6.9462" x2="151.13" y2="-6.92866" gradientUnits="userSpaceOnUse">
<stop stop-color="#232323"/>
<stop offset="1" stop-color="#323232"/>
</linearGradient>
<linearGradient id="paint11_linear" x1="152.108" y1="6.9462" x2="151.13" y2="-6.92866" gradientUnits="userSpaceOnUse">
<stop stop-color="#232323"/>
<stop offset="1" stop-color="#323232"/>
</linearGradient>
<linearGradient id="paint12_linear" x1="152.108" y1="6.9462" x2="151.13" y2="-6.92866" gradientUnits="userSpaceOnUse">
<stop stop-color="#232323"/>
<stop offset="1" stop-color="#323232"/>
</linearGradient>
<linearGradient id="paint13_linear" x1="152.108" y1="6.9462" x2="151.13" y2="-6.92866" gradientUnits="userSpaceOnUse">
<stop stop-color="#232323"/>
<stop offset="1" stop-color="#323232"/>
</linearGradient>
<linearGradient id="paint14_linear" x1="152.108" y1="6.9462" x2="151.13" y2="-6.92866" gradientUnits="userSpaceOnUse">
<stop stop-color="#232323"/>
<stop offset="1" stop-color="#323232"/>
</linearGradient>
<linearGradient id="paint15_linear" x1="152.108" y1="6.9462" x2="151.13" y2="-6.92866" gradientUnits="userSpaceOnUse">
<stop stop-color="#232323"/>
<stop offset="1" stop-color="#323232"/>
</linearGradient>
<linearGradient id="paint16_linear" x1="152.108" y1="6.9462" x2="151.13" y2="-6.92866" gradientUnits="userSpaceOnUse">
<stop stop-color="#232323"/>
<stop offset="1" stop-color="#323232"/>
</linearGradient>
<linearGradient id="paint17_linear" x1="152.108" y1="6.9462" x2="151.13" y2="-6.92866" gradientUnits="userSpaceOnUse">
<stop stop-color="#232323"/>
<stop offset="1" stop-color="#323232"/>
</linearGradient>
<linearGradient id="paint18_linear" x1="152.108" y1="6.9462" x2="151.13" y2="-6.92866" gradientUnits="userSpaceOnUse">
<stop stop-color="#232323"/>
<stop offset="1" stop-color="#323232"/>
</linearGradient>
<linearGradient id="paint19_linear" x1="152.108" y1="6.9462" x2="151.13" y2="-6.92866" gradientUnits="userSpaceOnUse">
<stop stop-color="#232323"/>
<stop offset="1" stop-color="#323232"/>
</linearGradient>
<linearGradient id="paint20_linear" x1="152.108" y1="6.9462" x2="151.13" y2="-6.92866" gradientUnits="userSpaceOnUse">
<stop stop-color="#232323"/>
<stop offset="1" stop-color="#323232"/>
</linearGradient>
<linearGradient id="paint21_linear" x1="152.108" y1="6.9462" x2="151.13" y2="-6.92866" gradientUnits="userSpaceOnUse">
<stop stop-color="#232323"/>
<stop offset="1" stop-color="#323232"/>
</linearGradient>
<linearGradient id="paint22_linear" x1="152.108" y1="6.9462" x2="151.13" y2="-6.92866" gradientUnits="userSpaceOnUse">
<stop stop-color="#232323"/>
<stop offset="1" stop-color="#323232"/>
</linearGradient>
<linearGradient id="paint23_linear" x1="152.108" y1="6.9462" x2="151.13" y2="-6.92866" gradientUnits="userSpaceOnUse">
<stop stop-color="#232323"/>
<stop offset="1" stop-color="#323232"/>
</linearGradient>
<linearGradient id="paint24_linear" x1="152.108" y1="6.9462" x2="151.13" y2="-6.92866" gradientUnits="userSpaceOnUse">
<stop stop-color="#232323"/>
<stop offset="1" stop-color="#323232"/>
</linearGradient>
<linearGradient id="paint25_linear" x1="152.108" y1="6.9462" x2="151.13" y2="-6.92866" gradientUnits="userSpaceOnUse">
<stop stop-color="#232323"/>
<stop offset="1" stop-color="#323232"/>
</linearGradient>
<linearGradient id="paint26_linear" x1="152.108" y1="6.9462" x2="151.13" y2="-6.92866" gradientUnits="userSpaceOnUse">
<stop stop-color="#232323"/>
<stop offset="1" stop-color="#323232"/>
</linearGradient>
<linearGradient id="paint27_linear" x1="152.108" y1="6.9462" x2="151.13" y2="-6.92866" gradientUnits="userSpaceOnUse">
<stop stop-color="#232323"/>
<stop offset="1" stop-color="#323232"/>
</linearGradient>
<linearGradient id="paint28_linear" x1="152.108" y1="6.9462" x2="151.13" y2="-6.92866" gradientUnits="userSpaceOnUse">
<stop stop-color="#232323"/>
<stop offset="1" stop-color="#323232"/>
</linearGradient>
<linearGradient id="paint29_linear" x1="152.108" y1="6.9462" x2="151.13" y2="-6.92866" gradientUnits="userSpaceOnUse">
<stop stop-color="#232323"/>
<stop offset="1" stop-color="#323232"/>
</linearGradient>
<linearGradient id="paint30_linear" x1="152.108" y1="6.9462" x2="151.13" y2="-6.92866" gradientUnits="userSpaceOnUse">
<stop stop-color="#232323"/>
<stop offset="1" stop-color="#323232"/>
</linearGradient>
<linearGradient id="paint31_linear" x1="152.108" y1="6.9462" x2="151.13" y2="-6.92866" gradientUnits="userSpaceOnUse">
<stop stop-color="#232323"/>
<stop offset="1" stop-color="#323232"/>
</linearGradient>
<linearGradient id="paint32_linear" x1="152.108" y1="6.9462" x2="151.13" y2="-6.92866" gradientUnits="userSpaceOnUse">
<stop stop-color="#232323"/>
<stop offset="1" stop-color="#323232"/>
</linearGradient>
<linearGradient id="paint33_linear" x1="152.108" y1="6.9462" x2="151.13" y2="-6.92866" gradientUnits="userSpaceOnUse">
<stop stop-color="#232323"/>
<stop offset="1" stop-color="#323232"/>
</linearGradient>
<linearGradient id="paint34_linear" x1="152.108" y1="6.9462" x2="151.13" y2="-6.92866" gradientUnits="userSpaceOnUse">
<stop stop-color="#232323"/>
<stop offset="1" stop-color="#323232"/>
</linearGradient>
<linearGradient id="paint35_linear" x1="152.108" y1="6.9462" x2="151.13" y2="-6.92866" gradientUnits="userSpaceOnUse">
<stop stop-color="#232323"/>
<stop offset="1" stop-color="#323232"/>
</linearGradient>
<linearGradient id="paint36_linear" x1="152.108" y1="6.9462" x2="151.13" y2="-6.92866" gradientUnits="userSpaceOnUse">
<stop stop-color="#232323"/>
<stop offset="1" stop-color="#323232"/>
</linearGradient>
<linearGradient id="paint37_linear" x1="152.108" y1="6.9462" x2="151.13" y2="-6.92866" gradientUnits="userSpaceOnUse">
<stop stop-color="#232323"/>
<stop offset="1" stop-color="#323232"/>
</linearGradient>
<linearGradient id="paint38_linear" x1="152.108" y1="6.9462" x2="151.13" y2="-6.92866" gradientUnits="userSpaceOnUse">
<stop stop-color="#232323"/>
<stop offset="1" stop-color="#323232"/>
</linearGradient>
<linearGradient id="paint39_linear" x1="152.108" y1="6.9462" x2="151.13" y2="-6.92866" gradientUnits="userSpaceOnUse">
<stop stop-color="#232323"/>
<stop offset="1" stop-color="#323232"/>
</linearGradient>
<linearGradient id="paint40_linear" x1="152.108" y1="6.9462" x2="151.13" y2="-6.92866" gradientUnits="userSpaceOnUse">
<stop stop-color="#232323"/>
<stop offset="1" stop-color="#323232"/>
</linearGradient>
<linearGradient id="paint41_linear" x1="152.108" y1="6.9462" x2="151.13" y2="-6.92866" gradientUnits="userSpaceOnUse">
<stop stop-color="#232323"/>
<stop offset="1" stop-color="#323232"/>
</linearGradient>
<linearGradient id="paint42_linear" x1="152.108" y1="6.9462" x2="151.13" y2="-6.92866" gradientUnits="userSpaceOnUse">
<stop stop-color="#232323"/>
<stop offset="1" stop-color="#323232"/>
</linearGradient>
<linearGradient id="paint43_linear" x1="152.108" y1="6.9462" x2="151.13" y2="-6.92866" gradientUnits="userSpaceOnUse">
<stop stop-color="#232323"/>
<stop offset="1" stop-color="#323232"/>
</linearGradient>
<linearGradient id="paint44_linear" x1="152.108" y1="6.9462" x2="151.13" y2="-6.92866" gradientUnits="userSpaceOnUse">
<stop stop-color="#232323"/>
<stop offset="1" stop-color="#323232"/>
</linearGradient>
<linearGradient id="paint45_linear" x1="152.108" y1="6.9462" x2="151.13" y2="-6.92866" gradientUnits="userSpaceOnUse">
<stop stop-color="#232323"/>
<stop offset="1" stop-color="#323232"/>
</linearGradient>
<linearGradient id="paint46_linear" x1="152.108" y1="6.9462" x2="151.13" y2="-6.92866" gradientUnits="userSpaceOnUse">
<stop stop-color="#232323"/>
<stop offset="1" stop-color="#323232"/>
</linearGradient>
<linearGradient id="paint47_linear" x1="152.108" y1="6.9462" x2="151.13" y2="-6.92866" gradientUnits="userSpaceOnUse">
<stop stop-color="#232323"/>
<stop offset="1" stop-color="#323232"/>
</linearGradient>
<linearGradient id="paint48_linear" x1="152.108" y1="6.9462" x2="151.13" y2="-6.92866" gradientUnits="userSpaceOnUse">
<stop stop-color="#232323"/>
<stop offset="1" stop-color="#323232"/>
</linearGradient>
<linearGradient id="paint49_linear" x1="152.108" y1="6.9462" x2="151.13" y2="-6.92866" gradientUnits="userSpaceOnUse">
<stop stop-color="#232323"/>
<stop offset="1" stop-color="#323232"/>
</linearGradient>
<linearGradient id="paint50_linear" x1="152.108" y1="6.9462" x2="151.13" y2="-6.92866" gradientUnits="userSpaceOnUse">
<stop stop-color="#232323"/>
<stop offset="1" stop-color="#323232"/>
</linearGradient>
<linearGradient id="paint51_linear" x1="152.108" y1="6.9462" x2="151.13" y2="-6.92866" gradientUnits="userSpaceOnUse">
<stop stop-color="#232323"/>
<stop offset="1" stop-color="#323232"/>
</linearGradient>
<linearGradient id="paint52_linear" x1="152.108" y1="6.9462" x2="151.13" y2="-6.92866" gradientUnits="userSpaceOnUse">
<stop stop-color="#232323"/>
<stop offset="1" stop-color="#323232"/>
</linearGradient>
<linearGradient id="paint53_linear" x1="152.108" y1="6.9462" x2="151.13" y2="-6.92866" gradientUnits="userSpaceOnUse">
<stop stop-color="#232323"/>
<stop offset="1" stop-color="#323232"/>
</linearGradient>
<linearGradient id="paint54_linear" x1="152.108" y1="6.9462" x2="151.13" y2="-6.92866" gradientUnits="userSpaceOnUse">
<stop stop-color="#232323"/>
<stop offset="1" stop-color="#323232"/>
</linearGradient>
<linearGradient id="paint55_linear" x1="152.108" y1="6.9462" x2="151.13" y2="-6.92866" gradientUnits="userSpaceOnUse">
<stop stop-color="#232323"/>
<stop offset="1" stop-color="#323232"/>
</linearGradient>
<linearGradient id="paint56_linear" x1="152.108" y1="6.9462" x2="151.13" y2="-6.92866" gradientUnits="userSpaceOnUse">
<stop stop-color="#232323"/>
<stop offset="1" stop-color="#323232"/>
</linearGradient>
<linearGradient id="paint57_linear" x1="152.108" y1="6.9462" x2="151.13" y2="-6.92866" gradientUnits="userSpaceOnUse">
<stop stop-color="#232323"/>
<stop offset="1" stop-color="#323232"/>
</linearGradient>
<linearGradient id="paint58_linear" x1="152.108" y1="6.9462" x2="151.13" y2="-6.92866" gradientUnits="userSpaceOnUse">
<stop stop-color="#232323"/>
<stop offset="1" stop-color="#323232"/>
</linearGradient>
<linearGradient id="paint59_linear" x1="152.108" y1="6.9462" x2="151.13" y2="-6.92866" gradientUnits="userSpaceOnUse">
<stop stop-color="#232323"/>
<stop offset="1" stop-color="#323232"/>
</linearGradient>
</defs>
</svg>
