<svg width="19" height="27" viewBox="0 0 19 27" fill="none" xmlns="http://www.w3.org/2000/svg">
<path fill-rule="evenodd" clip-rule="evenodd" d="M15.9302 8.79315C15.9302 5.02387 12.7498 2.10673 8.93028 2.52484C6.11984 2.8375 3.82301 5.08387 3.45904 7.89166L3.45788 7.90055L3.45785 7.90055C3.24727 9.42727 3.56156 10.827 4.28672 12.0204L9.6652 20.6682L14.9285 12.1416L14.9386 12.1252L14.9493 12.1092C15.5647 11.1862 15.9302 10.049 15.9302 8.79315ZM8.6898 0.338024C13.8266 -0.224917 18.1302 3.7287 18.1302 8.79315C18.1302 10.4747 17.641 12.0306 16.7909 13.3129L10.7291 23.133C10.6869 23.2273 10.6282 23.3238 10.5471 23.4165C10.2942 23.7055 9.95878 23.8037 9.6915 23.8037C9.2407 23.8037 8.94447 23.5506 8.82933 23.4355L8.73988 23.346L8.67307 23.2386L7.24499 20.9425C5.93427 21.1344 4.85717 21.4564 4.10826 21.8366C3.16683 22.3144 3.10002 22.6805 3.10002 22.7191C3.10002 22.7266 3.10089 22.8554 3.35667 23.096C3.61204 23.3362 4.04021 23.6045 4.65831 23.8538C5.88808 24.3498 7.65997 24.6865 9.66843 24.6865C11.6769 24.6865 13.4488 24.3498 14.6786 23.8538C15.2967 23.6045 15.7248 23.3362 15.9802 23.096C16.236 22.8554 16.2368 22.7266 16.2368 22.7191C16.2368 22.6467 16.2068 22.435 15.7723 22.1187C15.3344 21.7999 14.6124 21.4792 13.5794 21.221L14.113 19.0866C15.2885 19.3805 16.3118 19.7903 17.0671 20.3401C17.8258 20.8923 18.4368 21.6873 18.4368 22.7191C18.4368 23.5398 18.0083 24.2086 17.4876 24.6984C16.9666 25.1885 16.2713 25.5836 15.5014 25.8941C13.9552 26.5177 11.8929 26.8865 9.66843 26.8865C7.44393 26.8865 5.38162 26.5177 3.83542 25.8941C3.06555 25.5836 2.37029 25.1885 1.84924 24.6984C1.32859 24.2086 0.900024 23.5398 0.900024 22.7191C0.900024 21.3468 2.02949 20.4245 3.11252 19.8748C3.91041 19.4698 4.89439 19.1511 5.99221 18.9282L2.41565 13.1776L2.41006 13.1687L2.4101 13.1686C1.42012 11.5422 0.999151 9.63229 1.27787 7.60436C1.77457 3.78902 4.87495 0.761895 8.68815 0.338206L8.6898 0.338024ZM9.66843 7.07127C8.95457 7.07127 8.37588 7.64996 8.37588 8.36381C8.37588 9.07767 8.95457 9.65636 9.66843 9.65636C10.3823 9.65636 10.961 9.07767 10.961 8.36381C10.961 7.64996 10.3823 7.07127 9.66843 7.07127ZM6.17588 8.36381C6.17588 6.43493 7.73955 4.87127 9.66843 4.87127C11.5973 4.87127 13.161 6.43493 13.161 8.36381C13.161 10.2927 11.5973 11.8564 9.66843 11.8564C7.73955 11.8564 6.17588 10.2927 6.17588 8.36381Z" fill="url(#paint0_linear)"/>
<defs>
<linearGradient id="paint0_linear" x1="16.6205" y1="3.03975" x2="-4.91579" y2="16.615" gradientUnits="userSpaceOnUse">
<stop stop-color="#F1E17B"/>
<stop offset="1" stop-color="#D2AE44"/>
</linearGradient>
</defs>
</svg>
