<svg width="25" height="26" viewBox="0 0 25 26" fill="none" xmlns="http://www.w3.org/2000/svg">
<path fill-rule="evenodd" clip-rule="evenodd" d="M0.0769043 12.8461C0.0769043 6.04312 5.58248 0.538452 12.3846 0.538452C19.1876 0.538452 24.6923 6.04403 24.6923 12.8461C24.6923 19.6492 19.1867 25.1538 12.3846 25.1538H1.03844C0.507385 25.1538 0.0769043 24.7234 0.0769043 24.1923V12.8461ZM1.99998 23.2308H12.3846C18.1246 23.2308 22.7692 18.5854 22.7692 12.8461C22.7692 7.1061 18.1239 2.46153 12.3846 2.46153C6.64455 2.46153 1.99998 7.10687 1.99998 12.8461V23.2308ZM12.2255 7.26923C9.9631 7.26923 8.92411 8.60986 8.92411 9.51481C8.92411 10.1684 9.47709 10.47 9.92959 10.47C10.3107 10.47 10.4659 10.2412 10.6456 9.97619C10.8926 9.61201 11.1857 9.17966 12.1752 9.17966C13.0131 9.17966 13.6834 9.54837 13.6834 10.3192C13.6834 11.0597 13.0551 11.5421 12.5237 11.9501C12.4057 12.0407 12.2925 12.1276 12.1919 12.2129C11.706 12.6319 11.0692 13.319 11.0692 14.7602C11.0692 15.6316 11.3037 15.883 11.9908 15.883C12.812 15.883 12.9795 15.5143 12.9795 15.1959C12.9795 14.3245 12.9964 13.8217 13.9181 13.1012C14.3705 12.7492 15.795 11.6097 15.795 10.0344C15.795 8.45909 14.3705 7.26923 12.2255 7.26923ZM12.0076 17.0394C11.3038 17.0394 10.734 17.6259 10.734 18.3297C10.734 19.0168 11.2871 19.6201 12.0076 19.6201C12.7282 19.6201 13.298 19.0169 13.298 18.3297C13.298 17.6259 12.7115 17.0394 12.0076 17.0394Z" fill="url(#paint0_linear)"/>
<defs>
<linearGradient id="paint0_linear" x1="22.1428" y1="3.08791" x2="0.0769104" y2="24.1868" gradientUnits="userSpaceOnUse">
<stop stop-color="#F1E17B"/>
<stop offset="1" stop-color="#D2AE44"/>
</linearGradient>
</defs>
</svg>
