<svg width="24" height="24" viewBox="0 0 24 24" fill="none" xmlns="http://www.w3.org/2000/svg">
<path fill-rule="evenodd" clip-rule="evenodd" d="M20.44 3.54457C18.2034 1.30669 15.2212 0.0772705 12.0455 0.0772705C5.50632 0.0772705 0.179346 5.38019 0.173655 11.8899C0.173655 13.9748 0.720011 16.003 1.75581 17.799L0.0769043 23.9234L6.37138 22.2804C8.1072 23.2209 10.0593 23.7195 12.0455 23.7195H12.0512C18.5904 23.7195 23.9174 18.4165 23.9231 11.9012C23.9174 8.74551 22.6824 5.77678 20.44 3.54457ZM12.0455 21.7195C10.2699 21.7195 8.53404 21.2436 7.02018 20.3485L6.66163 20.1332L2.9282 21.1077L3.92416 17.4817L3.69082 17.1078C2.70055 15.5441 2.18265 13.7368 2.18265 11.8842C2.18265 6.4793 6.61041 2.07153 12.0512 2.07153C14.6862 2.07153 17.1619 3.09699 19.0286 4.94961C20.8896 6.8079 21.9141 9.2724 21.9141 11.8955C21.9084 17.3174 17.4806 21.7195 12.0455 21.7195ZM17.4578 14.3657C17.1619 14.2184 15.705 13.5045 15.4318 13.4026C15.1586 13.3062 14.9594 13.2553 14.7659 13.5499C14.5667 13.8445 13.9976 14.513 13.8269 14.7056C13.6561 14.9039 13.4797 14.9266 13.1838 14.7793C12.8878 14.632 11.9317 14.3204 10.7991 13.3119C9.917 12.5301 9.32511 11.5613 9.14869 11.2667C8.97795 10.9721 9.13161 10.8134 9.27958 10.6661C9.41048 10.5358 9.57553 10.3205 9.7235 10.1506C9.87147 9.98059 9.92269 9.85595 10.0194 9.65766C10.1162 9.45936 10.0707 9.2894 9.99668 9.1421C9.92269 8.99479 9.33081 7.53875 9.08039 6.94954C8.84136 6.37166 8.59664 6.45098 8.41452 6.44531C8.24379 6.43398 8.04459 6.43398 7.8454 6.43398C7.64621 6.43398 7.3275 6.50763 7.05432 6.80224C6.78115 7.09684 6.01852 7.8107 6.01852 9.26674C6.01852 10.7228 7.08278 12.1222 7.23075 12.3204C7.37872 12.5187 9.31942 15.4988 12.2959 16.7792C13.0016 17.0851 13.5537 17.2664 13.9862 17.4024C14.6976 17.629 15.3407 17.595 15.8529 17.5214C16.4221 17.4364 17.6058 16.8075 17.8562 16.1163C18.101 15.4252 18.101 14.8359 18.027 14.7113C17.953 14.5867 17.7538 14.513 17.4578 14.3657Z" fill="url(#paint0_linear)"/>
<defs>
<linearGradient id="paint0_linear" x1="21.4533" y1="2.54705" x2="0.0769119" y2="22.9866" gradientUnits="userSpaceOnUse">
<stop stop-color="#F1E17B"/>
<stop offset="1" stop-color="#D2AE44"/>
</linearGradient>
</defs>
</svg>
